<mxfile host="app.diagrams.net" modified="2023-12-10T10:04:26.284Z" agent="Mozilla/5.0 (X11; Ubuntu; Linux x86_64; rv:120.0) Gecko/20100101 Firefox/120.0" etag="h4ebKKHDghj_P04UzFla" version="22.1.7" type="device">
  <diagram name="Page-1" id="90a13364-a465-7bf4-72fc-28e22215d7a0">
    <mxGraphModel dx="939" dy="548" grid="1" gridSize="10" guides="1" tooltips="1" connect="1" arrows="1" fold="1" page="1" pageScale="1.5" pageWidth="1169" pageHeight="826" background="none" math="0" shadow="0">
      <root>
        <mxCell id="0" style=";html=1;" />
        <mxCell id="1" style=";html=1;" parent="0" />
        <mxCell id="extc0ruZQxCyVsp4dHub-1" value="Front-end" style="rounded=1;whiteSpace=wrap;html=1;fillColor=#fff2cc;strokeColor=#d6b656;" vertex="1" parent="1">
          <mxGeometry x="460" y="310" width="120" height="60" as="geometry" />
        </mxCell>
        <mxCell id="extc0ruZQxCyVsp4dHub-2" value="API Gateway" style="rounded=1;whiteSpace=wrap;html=1;fillColor=#d5e8d4;strokeColor=#82b366;" vertex="1" parent="1">
          <mxGeometry x="630" y="310" width="120" height="60" as="geometry" />
        </mxCell>
        <mxCell id="extc0ruZQxCyVsp4dHub-19" style="edgeStyle=orthogonalEdgeStyle;rounded=0;orthogonalLoop=1;jettySize=auto;html=1;exitX=0;exitY=0.5;exitDx=0;exitDy=0;" edge="1" parent="1" source="extc0ruZQxCyVsp4dHub-3">
          <mxGeometry relative="1" as="geometry">
            <mxPoint x="750" y="370" as="targetPoint" />
          </mxGeometry>
        </mxCell>
        <mxCell id="extc0ruZQxCyVsp4dHub-3" value="Image manager" style="rounded=1;whiteSpace=wrap;html=1;fillColor=#dae8fc;strokeColor=#6c8ebf;" vertex="1" parent="1">
          <mxGeometry x="800" y="390" width="120" height="60" as="geometry" />
        </mxCell>
        <mxCell id="extc0ruZQxCyVsp4dHub-17" style="edgeStyle=orthogonalEdgeStyle;rounded=0;orthogonalLoop=1;jettySize=auto;html=1;exitX=0;exitY=0.5;exitDx=0;exitDy=0;entryX=1;entryY=0.5;entryDx=0;entryDy=0;" edge="1" parent="1" source="extc0ruZQxCyVsp4dHub-4" target="extc0ruZQxCyVsp4dHub-2">
          <mxGeometry relative="1" as="geometry" />
        </mxCell>
        <mxCell id="extc0ruZQxCyVsp4dHub-28" style="edgeStyle=orthogonalEdgeStyle;rounded=0;orthogonalLoop=1;jettySize=auto;html=1;exitX=0.5;exitY=1;exitDx=0;exitDy=0;entryX=0.5;entryY=0;entryDx=0;entryDy=0;" edge="1" parent="1" source="extc0ruZQxCyVsp4dHub-4" target="extc0ruZQxCyVsp4dHub-3">
          <mxGeometry relative="1" as="geometry" />
        </mxCell>
        <mxCell id="extc0ruZQxCyVsp4dHub-4" value="Main REST Api" style="rounded=1;whiteSpace=wrap;html=1;fillColor=#dae8fc;strokeColor=#6c8ebf;" vertex="1" parent="1">
          <mxGeometry x="800" y="310" width="120" height="60" as="geometry" />
        </mxCell>
        <mxCell id="extc0ruZQxCyVsp4dHub-16" style="edgeStyle=orthogonalEdgeStyle;rounded=0;orthogonalLoop=1;jettySize=auto;html=1;exitX=0;exitY=0.5;exitDx=0;exitDy=0;entryX=1;entryY=0;entryDx=0;entryDy=0;" edge="1" parent="1" source="extc0ruZQxCyVsp4dHub-5" target="extc0ruZQxCyVsp4dHub-2">
          <mxGeometry relative="1" as="geometry" />
        </mxCell>
        <mxCell id="extc0ruZQxCyVsp4dHub-5" value="Auth Service" style="rounded=1;whiteSpace=wrap;html=1;fillColor=#dae8fc;strokeColor=#6c8ebf;" vertex="1" parent="1">
          <mxGeometry x="800" y="230" width="120" height="60" as="geometry" />
        </mxCell>
        <mxCell id="extc0ruZQxCyVsp4dHub-9" value="" style="endArrow=classic;startArrow=classic;html=1;rounded=0;exitX=1;exitY=0.5;exitDx=0;exitDy=0;entryX=0;entryY=0.5;entryDx=0;entryDy=0;" edge="1" parent="1" source="extc0ruZQxCyVsp4dHub-1" target="extc0ruZQxCyVsp4dHub-2">
          <mxGeometry width="50" height="50" relative="1" as="geometry">
            <mxPoint x="860" y="390" as="sourcePoint" />
            <mxPoint x="620" y="340" as="targetPoint" />
          </mxGeometry>
        </mxCell>
        <mxCell id="extc0ruZQxCyVsp4dHub-20" value="Занимается регистрацией, авторизацией и аутентификацией" style="text;html=1;strokeColor=none;fillColor=none;align=center;verticalAlign=middle;whiteSpace=wrap;rounded=0;" vertex="1" parent="1">
          <mxGeometry x="920" y="245" width="210" height="30" as="geometry" />
        </mxCell>
        <mxCell id="extc0ruZQxCyVsp4dHub-22" value="CRUD постов и прочих сущностей" style="text;html=1;strokeColor=none;fillColor=none;align=center;verticalAlign=middle;whiteSpace=wrap;rounded=0;" vertex="1" parent="1">
          <mxGeometry x="930" y="325" width="130" height="30" as="geometry" />
        </mxCell>
        <mxCell id="extc0ruZQxCyVsp4dHub-23" value="Менеджмент картинок, хранение, удаление" style="text;html=1;strokeColor=none;fillColor=none;align=center;verticalAlign=middle;whiteSpace=wrap;rounded=0;" vertex="1" parent="1">
          <mxGeometry x="930" y="405" width="130" height="30" as="geometry" />
        </mxCell>
        <mxCell id="extc0ruZQxCyVsp4dHub-25" value="Адаптер, для более гибкого и бесшовного использования бизнес-логики" style="text;html=1;strokeColor=none;fillColor=none;align=center;verticalAlign=middle;whiteSpace=wrap;rounded=0;" vertex="1" parent="1">
          <mxGeometry x="630" y="380" width="110" height="80" as="geometry" />
        </mxCell>
        <mxCell id="extc0ruZQxCyVsp4dHub-26" value="Веб-морда" style="text;html=1;strokeColor=none;fillColor=none;align=center;verticalAlign=middle;whiteSpace=wrap;rounded=0;" vertex="1" parent="1">
          <mxGeometry x="460" y="380" width="120" height="30" as="geometry" />
        </mxCell>
        <mxCell id="extc0ruZQxCyVsp4dHub-27" value="" style="shape=curlyBracket;whiteSpace=wrap;html=1;rounded=1;flipH=1;labelPosition=right;verticalLabelPosition=middle;align=left;verticalAlign=middle;size=0.5;" vertex="1" parent="1">
          <mxGeometry x="1070" y="320" width="20" height="120" as="geometry" />
        </mxCell>
        <mxCell id="extc0ruZQxCyVsp4dHub-29" value="Структура сервиса" style="text;strokeColor=none;fillColor=none;html=1;fontSize=24;fontStyle=1;verticalAlign=middle;align=center;" vertex="1" parent="1">
          <mxGeometry x="680" y="170" width="100" height="40" as="geometry" />
        </mxCell>
        <mxCell id="extc0ruZQxCyVsp4dHub-30" value="REST использует каскадное удаление и обновление изображений" style="text;html=1;strokeColor=none;fillColor=none;align=center;verticalAlign=middle;whiteSpace=wrap;rounded=0;" vertex="1" parent="1">
          <mxGeometry x="1090" y="325" width="120" height="110" as="geometry" />
        </mxCell>
      </root>
    </mxGraphModel>
  </diagram>
</mxfile>
